<?xml version="1.0" encoding="utf-8"?>
<!-- Generator: Adobe Illustrator 21.0.2, SVG Export Plug-In . SVG Version: 6.00 Build 0)  -->
<svg version="1.1" id="Layer_1" xmlns="http://www.w3.org/2000/svg" xmlns:xlink="http://www.w3.org/1999/xlink" x="0px" y="0px"
	 viewBox="0 0 150 26" style="enable-background:new 0 0 150 26;" xml:space="preserve">
<style type="text/css">
	.st0{fill:url(#SVGID_1_);}
	.st1{fill:#FFFFFF;}
</style>
<g>
	<path d="M7.1,8.4h6.9c0.5,0,1,0.4,1,1v0c0,0.5-0.4,1-1,1H3.2c0,2.2,1.8,3.9,3.9,3.9h6.9c0.5,0,1,0.4,1,1v0c0,0.5-0.4,1-1,1H3.2
		c0,2.2,1.8,3.9,3.9,3.9h7.8c2.2,0,3.9-1.8,3.9-3.9v-2v-3.9v-2c0-2.2-1.8-3.9-3.9-3.9H3.2C3.2,6.6,4.9,8.4,7.1,8.4z"/>
	<linearGradient id="SVGID_1_" gradientUnits="userSpaceOnUse" x1="5.4166" y1="17.8596" x2="14.4278" y2="6.8785">
		<stop  offset="0" style="stop-color:#9EED69"/>
		<stop  offset="0.1207" style="stop-color:#95E96C"/>
		<stop  offset="0.3214" style="stop-color:#7BDF73"/>
		<stop  offset="0.5773" style="stop-color:#52CE7F"/>
		<stop  offset="0.8756" style="stop-color:#19B690"/>
		<stop  offset="0.9944" style="stop-color:#00AC97"/>
	</linearGradient>
	<path class="st0" d="M7.1,8.4h6.9c0.5,0,1,0.4,1,1v0c0,0.5-0.4,1-1,1H3.2c0,2.2,1.8,3.9,3.9,3.9h6.9c0.5,0,1,0.4,1,1v0
		c0,0.5-0.4,1-1,1H3.2c0,2.2,1.8,3.9,3.9,3.9h7.8c2.2,0,3.9-1.8,3.9-3.9v-2v-3.9v-2c0-2.2-1.8-3.9-3.9-3.9H3.2
		C3.2,6.6,4.9,8.4,7.1,8.4z"/>
</g>
<g>
	<path class="st1" d="M33.3,6c1.3,1,2.1,2.4,2.5,4.2h-3.9c-0.3-0.7-0.7-1.3-1.3-1.7c-0.6-0.4-1.3-0.6-2.1-0.6c-1.1,0-2,0.4-2.6,1.2
		c-0.7,0.8-1,1.9-1,3.2c0,1.3,0.3,2.4,1,3.2c0.7,0.8,1.5,1.2,2.6,1.2c0.8,0,1.5-0.2,2.1-0.6c0.6-0.4,1-1,1.3-1.6h3.9
		c-0.4,1.7-1.2,3.1-2.5,4.2c-1.3,1-2.9,1.6-4.8,1.6c-1.5,0-2.8-0.3-3.9-1c-1.1-0.7-2-1.6-2.6-2.8c-0.6-1.2-0.9-2.5-0.9-4.1
		s0.3-2.9,0.9-4.1c0.6-1.2,1.5-2.1,2.6-2.8c1.1-0.7,2.4-1,3.9-1C30.4,4.5,32,5,33.3,6z"/>
	<path class="st1" d="M49.1,5.4c1.2,0.7,2.1,1.6,2.8,2.8c0.7,1.2,1,2.5,1,4s-0.3,2.9-1,4.1c-0.7,1.2-1.6,2.1-2.8,2.8
		c-1.2,0.7-2.5,1-3.9,1c-1.4,0-2.7-0.3-3.9-1c-1.2-0.7-2.1-1.6-2.8-2.8c-0.7-1.2-1-2.6-1-4.1s0.3-2.9,1-4C39.1,7,40,6.1,41.2,5.4
		c1.2-0.7,2.5-1,3.9-1C46.6,4.4,47.9,4.7,49.1,5.4z M42.2,9c-0.7,0.8-1.1,1.9-1.1,3.2c0,1.3,0.4,2.4,1.1,3.2
		c0.7,0.8,1.7,1.2,2.9,1.2c1.2,0,2.2-0.4,2.9-1.2c0.7-0.8,1.1-1.9,1.1-3.2S48.7,9.8,48,9s-1.7-1.2-2.9-1.2C43.9,7.9,43,8.2,42.2,9z"
		/>
	<path class="st1" d="M72.2,4.8V20h-3.7v-9.5L65.2,20H62l-3.3-9.5V20H55V4.8h4.5l4.1,10.6l4.1-10.6H72.2z"/>
	<path class="st1" d="M92,4.8V20h-3.7v-9.5L85,20h-3.2l-3.3-9.5V20h-3.7V4.8h4.5l4.1,10.6l4.1-10.6H92z"/>
	<path class="st1" d="M98.3,7.6v3.2h5.2v2.8h-5.2V17h5.8v3h-9.5V4.6h9.5v3H98.3z"/>
	<path class="st1" d="M114.1,20l-3.3-5.8h-0.8V20h-3.7V4.6h6.3c1.2,0,2.2,0.2,3.1,0.6c0.8,0.4,1.5,1,1.9,1.7
		c0.4,0.7,0.6,1.6,0.6,2.5c0,1.1-0.3,2.1-0.9,2.8c-0.6,0.8-1.5,1.3-2.7,1.6l3.6,6H114.1z M109.9,11.7h2.3c0.7,0,1.3-0.2,1.6-0.5
		c0.3-0.3,0.5-0.8,0.5-1.4c0-0.6-0.2-1.1-0.5-1.4c-0.4-0.3-0.9-0.5-1.6-0.5h-2.3V11.7z"/>
	<path class="st1" d="M131.9,6c1.3,1,2.1,2.4,2.5,4.2h-3.9c-0.3-0.7-0.7-1.3-1.3-1.7c-0.6-0.4-1.3-0.6-2.1-0.6c-1.1,0-2,0.4-2.6,1.2
		c-0.7,0.8-1,1.9-1,3.2c0,1.3,0.3,2.4,1,3.2c0.7,0.8,1.5,1.2,2.6,1.2c0.8,0,1.5-0.2,2.1-0.6c0.6-0.4,1-1,1.3-1.6h3.9
		c-0.4,1.7-1.2,3.1-2.5,4.2c-1.3,1-2.9,1.6-4.8,1.6c-1.5,0-2.8-0.3-3.9-1c-1.1-0.7-2-1.6-2.6-2.8c-0.6-1.2-0.9-2.5-0.9-4.1
		s0.3-2.9,0.9-4.1c0.6-1.2,1.5-2.1,2.6-2.8c1.1-0.7,2.4-1,3.9-1C129,4.5,130.6,5,131.9,6z"/>
	<path class="st1" d="M140.2,7.6v3.2h5.2v2.8h-5.2V17h5.8v3h-9.5V4.6h9.5v3H140.2z"/>
</g>
</svg>
